<?xml version="1.0" encoding="utf-8"?>
<!-- Generator: Adobe Illustrator 21.1.0, SVG Export Plug-In . SVG Version: 6.00 Build 0)  -->
<svg version="1.1" id="Layer_1" xmlns="http://www.w3.org/2000/svg" xmlns:xlink="http://www.w3.org/1999/xlink" x="0px" y="0px"
	 viewBox="0 0 541.5 333.1" style="enable-background:new 0 0 541.5 333.1;" xml:space="preserve">
<g>
	<rect x="250.6" y="278.1" width="40.4" height="55.1"/>
	<path d="M452.5,172.3v-57.7l60.4,60.4l28.5-28.5l-80.6-80.6l-28.5-28.5l-28.5,28.5l-33.6,33.6l-70.9-70.9L270.7,0l-28.5,28.5
		l-70.9,70.9l-33.6-33.6l-28.5-28.5L80.6,65.9L0,146.5L28.5,175l60.4-60.4v57.7l-8.4,8.4L0,261.2l28.5,28.5l60.4-60.4v103.8h40.4
		V229.3l40.5,40.5v63.3h40.4v-79.5l60.6-60.6l60.6,60.6v79.5h40.4v-63.3l40.5-40.5v103.8h40.4V229.3l60.4,60.4l28.5-28.5l-80.6-80.6
		L452.5,172.3z M403.8,180.6l-44.2,44.2l-60.4-60.4l-28.5-28.5l-28.5,28.5l-60.4,60.4l-44.2-44.2l-8.4-8.4v-57.7l60.4,60.4
		l28.5-28.5L199.8,128l70.9-70.9l70.9,70.9l-18.4,18.4l28.5,28.5l60.4-60.4v57.7L403.8,180.6z"/>
</g>
</svg>
